<?xml version="1.0" standalone="no"?>
<!DOCTYPE svg PUBLIC "-//W3C//DTD SVG 20010904//EN"
 "http://www.w3.org/TR/2001/REC-SVG-20010904/DTD/svg10.dtd">
<svg version="1.0" xmlns="http://www.w3.org/2000/svg"
 width="1310.000000pt" height="1310.000000pt" viewBox="0 0 1310.000000 1310.000000"
 preserveAspectRatio="xMidYMid meet">
<metadata>
Created by potrace 1.11, written by Peter Selinger 2001-2013
</metadata>
<g transform="translate(0.000000,1310.000000) scale(0.100000,-0.100000)"
fill="#000000" stroke="none">
<path d="M6315 9093 c-359 -42 -598 -110 -890 -253 -166 -81 -355 -200 -491
-310 -101 -82 -292 -273 -374 -374 -279 -345 -474 -784 -546 -1231 -25 -156
-30 -519 -10 -685 58 -474 248 -928 544 -1300 90 -113 276 -301 386 -390 276
-223 645 -409 985 -495 261 -66 621 -93 887 -65 1031 104 1899 820 2198 1812
74 244 105 461 106 728 1 588 -177 1110 -539 1585 -88 115 -290 322 -405 415
-383 309 -860 507 -1348 560 -89 9 -433 12 -503 3z m560 -338 c996 -151 1756
-926 1891 -1925 7 -58 14 -186 14 -285 0 -363 -70 -667 -224 -982 -125 -252
-264 -443 -467 -638 -218 -209 -494 -384 -758 -479 -98 -35 -151 -35 -193 3
l-33 29 -6 419 c-5 392 -6 422 -26 474 -29 77 -48 113 -83 152 l-29 33 90 13
c535 76 830 340 911 816 17 99 19 150 16 290 -4 151 -8 179 -33 255 -36 110
-72 182 -135 265 l-50 66 15 52 c36 120 29 297 -17 456 -27 91 -39 99 -138 82
-126 -20 -287 -88 -438 -183 l-63 -41 -117 26 c-183 40 -274 50 -452 50 -178
0 -269 -10 -451 -50 l-115 -25 -67 41 c-162 99 -312 162 -437 182 -99 17 -111
9 -138 -82 -47 -163 -54 -334 -17 -456 l15 -52 -50 -66 c-62 -82 -99 -154
-136 -265 -28 -82 -28 -91 -29 -295 0 -224 10 -298 59 -443 110 -323 355 -520
749 -602 51 -11 118 -22 150 -26 l58 -7 -19 -21 c-42 -46 -76 -110 -101 -193
l-28 -88 -67 -23 c-87 -29 -206 -39 -277 -22 -124 29 -205 92 -301 232 -72
105 -120 150 -206 190 -108 52 -232 47 -240 -8 -3 -22 39 -65 120 -121 64 -43
131 -131 179 -233 22 -47 48 -101 57 -120 26 -52 127 -156 185 -189 100 -57
170 -74 307 -75 69 -1 151 3 183 7 l57 8 0 -211 0 -212 -29 -29 c-44 -44 -101
-40 -238 15 -755 303 -1283 984 -1388 1789 -19 152 -19 423 0 573 74 560 355
1076 776 1425 358 297 769 470 1234 518 120 13 406 5 530 -14z m-45 -2204 c0
-158 0 -160 23 -164 16 -3 13 -5 -10 -6 -27 -1 -33 3 -33 19 0 18 -2 18 -36
-5 -42 -29 -73 -31 -118 -10 -85 40 -87 168 -4 211 40 21 102 13 134 -17 l24
-22 0 66 c0 60 -2 67 -20 67 -11 0 -20 5 -20 10 0 6 14 10 30 10 l30 0 0 -159z
m800 88 l0 -70 26 20 c26 21 76 27 109 15 29 -12 45 -60 45 -138 0 -69 2 -75
23 -79 12 -2 -3 -4 -33 -4 -30 0 -45 2 -32 4 21 4 22 9 22 88 0 63 -4 88 -16
99 -33 34 -79 30 -126 -12 -14 -12 -18 -31 -18 -93 0 -73 1 -78 23 -82 12 -2
-3 -4 -33 -4 -30 0 -45 2 -32 4 22 4 22 7 22 154 0 142 -1 149 -20 149 -11 0
-20 5 -20 10 0 6 14 10 30 10 l30 0 0 -71z m-2164 32 c41 -25 64 -77 64 -143
0 -84 -61 -158 -130 -158 -69 0 -130 74 -130 158 0 97 52 162 130 162 19 0 49
-9 66 -19z m617 -73 l72 -2 -72 -3 -73 -4 0 -88 c0 -107 7 -116 83 -109 28 3
61 9 71 13 13 6 17 5 12 -3 -11 -18 -85 -34 -122 -27 -51 9 -64 36 -64 132 l0
83 -27 1 -28 2 28 4 c24 4 27 9 27 42 0 55 14 61 18 7 l3 -46 72 -2z m-280 -2
c15 -8 27 -11 27 -5 0 5 5 9 10 9 6 0 10 -16 10 -35 0 -38 -14 -47 -23 -15 -7
28 -69 52 -113 44 -80 -15 -112 -117 -55 -175 24 -24 38 -29 78 -29 30 0 60 7
81 20 37 23 46 25 36 9 -11 -18 -86 -49 -119 -49 -69 0 -134 76 -120 141 8 35
41 78 69 89 33 13 88 11 119 -4z m647 -1 c36 -19 60 -62 60 -110 0 -48 -51
-103 -101 -111 -47 -8 -105 19 -124 57 -18 33 -19 92 -4 120 27 52 112 73 169
44z m659 -2 c18 -16 21 -31 23 -108 3 -86 4 -89 28 -96 23 -6 22 -7 -7 -8 -23
-1 -33 4 -33 14 0 19 2 19 -45 -5 -44 -23 -76 -25 -108 -9 -29 16 -37 28 -37
61 0 45 41 68 121 68 65 0 69 1 69 23 0 55 -40 71 -135 55 l-40 -7 30 14 c42
20 108 19 134 -2z m354 6 c11 0 17 -8 17 -23 0 -33 -11 -39 -24 -14 -16 32
-74 43 -120 24 -63 -26 -43 -61 45 -76 73 -12 84 -17 98 -47 30 -66 -81 -120
-161 -79 -16 8 -28 11 -28 5 0 -5 -4 -9 -10 -9 -5 0 -10 13 -10 29 0 17 5 33
10 36 6 3 10 -1 10 -9 0 -25 42 -46 90 -46 51 0 90 22 90 50 0 27 -36 48 -97
56 -58 7 -86 30 -81 65 5 34 44 51 103 44 28 -3 58 -6 68 -6z"/>
<path d="M6662 6585 c-39 -17 -66 -73 -57 -116 17 -76 120 -105 176 -50 81 81
-14 213 -119 166z"/>
<path d="M5348 6665 c-31 -17 -68 -89 -68 -133 0 -79 54 -142 123 -142 32 0
46 6 72 34 49 53 57 114 24 183 -32 66 -92 89 -151 58z"/>
<path d="M6343 6585 c-35 -15 -63 -60 -63 -99 0 -14 14 -41 31 -61 27 -30 37
-35 74 -35 52 0 100 35 110 80 9 41 -19 95 -60 114 -40 19 -51 19 -92 1z"/>
<path d="M6973 6480 c-58 -35 -34 -90 39 -90 57 0 108 33 108 70 0 20 -6 29
-22 34 -43 11 -93 6 -125 -14z"/>
</g>
</svg>
